<svg xmlns="http://www.w3.org/2000/svg" width="512" height="512" viewBox="0 0 512 512" fill="none">
  <defs>
    <linearGradient id="grad512" x1="80" y1="80" x2="432" y2="432" gradientUnits="userSpaceOnUse">
      <stop offset="0" stop-color="#2563EB" />
      <stop offset="1" stop-color="#7C3AED" />
    </linearGradient>
  </defs>
  <rect width="512" height="512" rx="128" fill="url(#grad512)" />
  <g fill="#fff" fill-opacity="0.92">
    <path d="M176 160c-22.091 0-40 17.909-40 40v134.4c0 22.091 17.909 40 40 40h70.394l41.314 55.08a13.333 13.333 0 0 0 21.387-.199L350.606 374.4H368c22.091 0 40-17.909 40-40V200c0-22.091-17.909-40-40-40H176Zm34.667 88h144c7.363 0 13.333 5.97 13.333 13.333S358.03 275.667 350.667 275.667h-144c-7.363 0-13.334-5.97-13.334-13.334 0-7.363 5.971-13.333 13.334-13.333Zm0 66.666h90.666c7.364 0 13.334 5.97 13.334 13.334 0 7.363-5.97 13.333-13.334 13.333h-90.666c-7.363 0-13.334-5.97-13.334-13.333 0-7.364 5.971-13.334 13.334-13.334Z" />
  </g>
</svg>
